<?xml version="1.0" encoding="UTF-8"?>
<svg id="Layer_1" data-name="Layer 1" xmlns="http://www.w3.org/2000/svg" version="1.1" viewBox="0 0 500 500">
  <defs>
    <style>
      .cls-1 {
        fill: "currentColor";
        stroke-width: 0px;
      }
    </style>
  </defs>
  <path class="cls-1" d="M395.4,240.1c-19.5-19.5-47-31.4-81.8-35.5l.9-6.6c2.5-2.3,6.6-6.7,5.3-11.7-1.5-5.9-9.2-7.6-11.7-8.2h-.1s-37-5.9-37-5.9l-5.3,28.5c-24.5,1.1-44.7,4-60.1,8.6l2.9-46.2c50.3-2.3,100.1-6.4,148-12.1l4.2-.5-8.5-46.4-3.9.7c-37.8,6.7-84,11.9-137.6,15.4,1-16.8,2.6-34.7,4.7-54.5,2.8-2.2,7.3-6.6,6.2-11.6-1.2-5.4-7.8-7.4-12.7-8.3h-.4c0,0-37,0-37,0l-.3,3.6c-2.3,24.2-4,48.8-5.1,73l-82.6,1.7,8.5,46.4,72.1-3.4-3.1,59.4c-.6.3-1.2.6-1.8,1-15,7.9-22.5,11.9-47.6,37s-41.2,61.6-41.2,101.9,6.8,41.7,20.3,55c11.6,11.6,18.6,18.6,41.1,18.6s45.6-11.7,75-35.9l8.6,18.8,39.6-29.1-10.6-23.1c22.6-24.8,42.5-65.2,60.7-123.5,24.1,2.7,43.3,11,56.9,24.6,11.4,11.5,17.9,31.4,17.9,54.6s-6,39.2-17.9,51.1l-1.2,1.2v.2c-16,14.9-47,24.6-92.1,29l-6.2.6,27.2,46.1,2.7-.5c49.2-8.2,85.1-23.2,106.5-44.6,21.3-21.3,30.8-46.3,30.8-81.1s-11.5-65.4-34.2-88ZM131.7,395.2c-8.1,0-10.5-1.8-11.1-2.3-2.1-2.1-4.5-3.2-7.2-3.2s-.8,0-1.1,0c-.5-2-.9-6.8-.9-18.4,0-32.3,10.1-58.9,30.1-78.9l2.8-2.8h0c8.2-7.9,15.5-13.8,22.1-17.9,2.7,29.9,9.3,61.2,19.8,93.3-20.4,20-38.8,30.1-54.5,30.1ZM223.4,326.2c-8.4-24.5-13.2-49.8-14.4-75.5,14.8-4.6,31-7.1,48.3-7.5-7.3,32.3-18.7,60.1-33.9,83Z"/>
</svg>