<?xml version="1.0" encoding="UTF-8"?>
<svg id="Layer_1" data-name="Layer 1" xmlns="http://www.w3.org/2000/svg" version="1.1" viewBox="0 0 500 500">
  <defs>
    <style>
      .cls-1 {
        fill: "currentColor";
        stroke-width: 0px;
      }
    </style>
  </defs>
  <path class="cls-1" d="M250,450h0c-2.3,0-4.6-.4-6.8-1.1h0c-1.2-.4-2.4-.9-3.5-1.5-.8-.4-1.6-.9-2.4-1.4l-39.4-26.2c-8.9-5.9-13.3-8.9-16.9-10.5-3.2-1.4-6.6-2.4-10-3-3.9-.7-9.2-.7-19.9-.7h-65.5c-14.5,0-24,0-33.5-4.8-8.4-4.3-15.1-11-19.4-19.4-4.8-9.5-4.8-19.1-4.8-33.5V107.8c0-14.5,0-24,4.8-33.5,4.3-8.4,11-15.1,19.4-19.4,9.5-4.8,19.1-4.8,33.5-4.8h22.2c53.3,0,80,0,103.8,12.1,15.3,7.8,28.3,18.8,38.4,32.3,10.1-13.5,23.2-24.5,38.4-32.3,23.8-12.1,50.5-12.1,103.8-12.1h22.2c14.5,0,24,0,33.5,4.8,8.4,4.3,15.1,11,19.4,19.4,4.8,9.5,4.8,19.1,4.8,33.5v240c0,14.5,0,24-4.8,33.5-4.3,8.4-11,15.1-19.4,19.4-9.5,4.8-19.1,4.8-33.5,4.8h-65.5c-10.7,0-16,0-19.9.7-3.4.6-6.8,1.6-10,3-3.5,1.5-7.5,4.1-17,10.5l-39.4,26.3c-.7.5-1.4,1-2.2,1.4-1.2.6-2.5,1.2-3.8,1.6h0c-2.2.7-4.4,1-6.6,1h0ZM72.5,360.8c2.7.2,8,.2,13.1.2h65.5c12.9,0,20,0,27.7,1.4,6.9,1.2,13.6,3.3,20,6,7.2,3.1,13.1,7.1,23.8,14.2l5.2,3.5v-171.8c0-46.2,0-69.3-7.3-83.6-6.4-12.6-16.5-22.7-29.1-29.1-14.3-7.3-37.4-7.3-83.6-7.3h-22.2c-5.1,0-10.4,0-13.1.2-.2,2.7-.2,8-.2,13.1v240c0,5.1,0,10.4.2,13.1h0ZM272.2,214.3v171.8l5.2-3.5c10.7-7.1,16.6-11.1,23.8-14.2,6.4-2.8,13.1-4.8,20-6,7.7-1.4,14.8-1.4,27.7-1.4h65.5c5.1,0,10.4,0,13.1-.2.2-2.7.2-8,.2-13.1V107.8c0-5.1,0-10.4-.2-13.1-2.7-.2-8-.2-13.1-.2h-22.2c-46.2,0-69.3,0-83.6,7.3-12.6,6.4-22.7,16.5-29.1,29.1-7.3,14.3-7.3,37.4-7.3,83.6h0ZM428.9,94.9h0ZM71.1,94.9h0Z"/>
</svg>