<?xml version="1.0" encoding="UTF-8"?>
<svg id="Layer_1" data-name="Layer 1" xmlns="http://www.w3.org/2000/svg" version="1.1" viewBox="0 0 50 50">
  <defs>
    <style>
      .cls-1 {
        fill: #e0e0e0;
      }

      .cls-1, .cls-2 {
        stroke-width: 0px;
      }

      .cls-2 {
        fill: #ff4500;
      }
    </style>
  </defs>
  <path class="cls-1" d="M50,25c0,7-2.9,13.3-7.5,17.9,0,0,0,0,0,0-.4.4-.8.7-1.2,1.1-.8.7-1.6,1.3-2.5,1.9-3.9,2.6-8.7,4.1-13.7,4.1s-9.8-1.5-13.7-4.1c-.9-.6-1.7-1.2-2.5-1.9-.4-.3-.8-.7-1.2-1.1,0,0,0,0,0,0C2.9,38.3,0,32,0,25,0,11.2,11.2,0,25,0s25,11.2,25,25Z"/>
  <path class="cls-2" d="M42.4,42.9c-.4.4-.8.7-1.2,1.1-.8.7-1.6,1.3-2.5,1.9-3.9,2.6-8.7,4.1-13.7,4.1s-9.8-1.5-13.7-4.1c-.9-.6-1.7-1.2-2.5-1.9-.4-.3-.8-.7-1.2-1.1.9-2.9,3.2-5.3,6.3-6.2l7.4-2.3v-1.2c-.9-.6-1.8-1.2-2.4-1.6-1.3-.9-2.1-2.2-2.4-3.7l-.4-2.4c-1.2,0-2.2-1-2.2-2.2s.6-1.7,1.3-2c-.7-1.6-1.2-3.3-1.5-5.1-.2-1.1-.3-2.3,0-3.4.3-1.1,1.2-2,2.2-2h.1c.6-1,1.7-1.7,2.7-2,1.1-.4,2.2-.5,3.3-.6.4,0,.9-.1,1.3-.1,2-.2,4.2-.2,6.3.3,2.1.6,4,1.9,5.1,3.9.8,1.6,1,3.6.8,5.4-.1,1.2-.4,2.4-.8,3.6.9.3,1.5,1.1,1.5,2.1s-1,2.2-2.2,2.2l-.4,2.4c-.3,1.5-1.1,2.9-2.4,3.7-.7.5-1.5,1.1-2.4,1.6v1.2l7.4,2.3c3,1,5.3,3.3,6.3,6.2Z"/>
</svg>