<?xml version="1.0" encoding="UTF-8"?>
<svg id="Layer_1" data-name="Layer 1" xmlns="http://www.w3.org/2000/svg" version="1.1" viewBox="0 0 800 800">
  <defs>
    <style>
      .cls-1 {
        fill: #323232;
        fill-rule: evenodd;
        stroke-width: 0px;
      }
    </style>
  </defs>
  <path class="cls-1" d="M266.7,400c0-73.6,59.7-133.3,133.3-133.3s133.3,59.7,133.3,133.3-59.7,133.3-133.3,133.3-133.3-59.7-133.3-133.3ZM208.1,211.4c104.1-104.1,273-104.1,377.1,0l72.3,72.3c20.9,20.9,38.9,38.9,51.4,55.3,13.4,17.5,23.5,37,23.5,61s-10.1,43.5-23.5,61c-12.5,16.4-30.5,34.4-51.4,55.3l-72.3,72.3c-104.1,104.1-273,104.1-377.1,0l-72.3-72.3c-20.9-20.9-38.9-38.9-51.4-55.3-13.4-17.5-23.5-37-23.5-61s10.1-43.5,23.5-61c12.5-16.4,30.5-34.4,51.4-55.2.5-.5,1-1,1.6-1.6l70.7-70.7Z"/>
  <path class="cls-1" d="M400,333.3c-36.8,0-66.7,29.8-66.7,66.7s29.8,66.7,66.7,66.7,66.7-29.8,66.7-66.7-29.8-66.7-66.7-66.7Z"/>
</svg>