<?xml version="1.0" encoding="UTF-8"?>
<svg id="Layer_1" data-name="Layer 1" xmlns="http://www.w3.org/2000/svg" viewBox="0 0 100 100">
  <defs>
    <style>
      .cls-1 {
        fill: "currentcolor";
        stroke-width: 0px;
      }
    </style>
  </defs>
  <g>
    <path class="cls-1" d="M36.89,84.32c-3.36,0-6.91-.79-10.28-2.29-4.63-2.06-8.44-5.21-10.71-8.88-2.2-3.56-2.68-7.17-1.35-10.16,1.7-3.83,6.16-6.12,11.93-6.12,3.36,0,6.91.79,10.28,2.29,4.63,2.06,8.44,5.21,10.71,8.88,2.2,3.56,2.68,7.17,1.35,10.16-1.7,3.83-6.16,6.12-11.93,6.12Z"/>
    <path class="cls-1" d="M63.11,84.32c-5.77,0-10.23-2.29-11.93-6.12-1.33-2.99-.85-6.6,1.35-10.16,2.27-3.67,6.07-6.82,10.71-8.88,3.37-1.5,6.93-2.29,10.28-2.29,5.77,0,10.23,2.29,11.93,6.12,1.33,2.99.85,6.6-1.35,10.16-2.27,3.67-6.07,6.82-10.71,8.88-3.37,1.5-6.93,2.29-10.28,2.29,0,0,0,0,0,0Z"/>
  </g>
  <path class="cls-1" d="M78.18,31.61c-3.74,0-7.22,1.1-10.14,3,.41-1.53.63-3.14.63-4.8,0-10.31-8.36-18.66-18.66-18.66s-18.66,8.36-18.66,18.66c0,1.66.22,3.27.63,4.8-2.92-1.89-6.4-3-10.14-3-10.31,0-18.66,8.36-18.66,18.66,0,6.63,3.46,12.45,8.67,15.76.06-1.38.36-2.71.92-3.97,2.08-4.68,7.32-7.48,14.02-7.48,2.45,0,4.99.39,7.49,1.13.23-.41.46-.82.72-1.22l12.02,7.26-9.24-10.58c.47-.44.95-.85,1.47-1.24l8.82,10.94-5.07-13.11c.59-.25,1.19-.47,1.8-.65l4.55,13.3-.28-14.05c.32-.02.64-.03.96-.03s.64,0,.96.03l-.28,14.05,4.55-13.3c.61.19,1.22.41,1.8.65l-5.07,13.11,8.82-10.94c.51.39,1,.8,1.47,1.24l-9.24,10.58,12.02-7.26c.29.44.55.9.8,1.36,2.66-.83,5.37-1.27,7.98-1.27,6.7,0,11.94,2.8,14.02,7.48.51,1.14.81,2.35.9,3.59,4.9-3.36,8.12-9,8.12-15.39,0-10.31-8.36-18.66-18.66-18.66ZM30.45,52.99c-.55.96-1.78,1.29-2.74.73-.96-.55-1.29-1.78-.73-2.74.55-.96,1.78-1.29,2.74-.73.96.55,1.29,1.78.73,2.74ZM35.49,46.99c-.85.71-2.11.6-2.82-.25-.71-.85-.6-2.11.25-2.82.85-.71,2.11-.6,2.82.25.71.85.6,2.11-.25,2.82ZM42.28,43.07c-1.04.38-2.19-.16-2.57-1.2-.38-1.04.16-2.19,1.2-2.57,1.04-.38,2.19.16,2.57,1.2s-.16,2.19-1.2,2.57ZM50,41.71c-1.11,0-2-.9-2-2s.9-2,2-2,2,.9,2,2-.9,2-2,2ZM60.29,41.87c-.38,1.04-1.53,1.58-2.57,1.2-1.04-.38-1.58-1.53-1.2-2.57.38-1.04,1.53-1.58,2.57-1.2,1.04.38,1.58,1.53,1.2,2.57ZM67.33,46.74c-.71.85-1.98.96-2.82.25-.85-.71-.96-1.98-.25-2.82.71-.85,1.98-.96,2.82-.25.85.71.96,1.98.25,2.82ZM72.28,53.73c-.96.55-2.18.22-2.74-.73-.55-.96-.23-2.18.73-2.74.96-.55,2.18-.23,2.74.73.55.96.23,2.18-.73,2.74Z"/>
</svg>