<?xml version="1.0" encoding="UTF-8"?>
<svg id="Layer_1" data-name="Layer 1" xmlns="http://www.w3.org/2000/svg" version="1.1" viewBox="0 0 500 500">
  <defs>
    <style>
      .cls-1 {
        fill: #b6b6b6;
      }

      .cls-1, .cls-2 {
        stroke-width: 0px;
      }

      .cls-2 {
        fill: #fff;
      }
    </style>
  </defs>
  <rect class="cls-1" x="33.4" y="33.4" width="433.3" height="433.3"/>
  <g>
    <path class="cls-2" d="M250,116.8c-73.6,0-133.2,59.6-133.2,133.2s8.4,53.1,22.6,74.3l-12.4,58.9,64.4-13.5c17.7,8.6,37.6,13.5,58.6,13.5,73.6,0,133.2-59.6,133.2-133.2s-59.6-133.2-133.2-133.2ZM339.1,218.8l-32.4,35.1-39.6,42.9-43.7-43.7-62.5,31.2,52.7-62.3,16-18.9,35.9,35.9,7.8,7.8,33.4-15.2,30.4-13.8c.7.3,1.3.6,2,.9h0Z"/>
    <path class="cls-1" d="M339.1,218.8h0c0,0-32.4,35.2-32.4,35.2l-39.6,42.9-43.7-43.7-62.5,31.2,52.7-62.3,16-18.9,35.9,35.9,7.8,7.8,33.4-15.2,30.4-13.8c.7.3,1.3.6,2,.9Z"/>
  </g>
</svg>