<?xml version="1.0" encoding="UTF-8"?>
<svg id="Layer_1" data-name="Layer 1" xmlns="http://www.w3.org/2000/svg" version="1.1" viewBox="0 0 32 12">
  <defs>
    <style>
      .cls-1 {
        fill: #005be9;
      }

      .cls-1, .cls-2 {
        stroke-width: 0px;
      }

      .cls-2 {
        fill: #fff;
      }
    </style>
  </defs>
  <rect class="cls-1" width="32" height="12"/>
  <g>
    <path class="cls-2" d="M2.4,10V2h3.1c.6,0,1.1.1,1.6.3.4.2.8.5,1,1,.2.4.3.9.3,1.4s-.1,1-.3,1.4c-.2.4-.6.7-1,.9-.4.2-1,.3-1.6.3h-2v-1.3h1.7c.3,0,.6,0,.8-.2.2-.1.4-.3.5-.5.1-.2.2-.4.2-.7s0-.5-.2-.7c-.1-.2-.3-.4-.5-.5-.2-.1-.5-.2-.8-.2h-1.2v6.6h-1.6Z"/>
    <path class="cls-2" d="M9.6,10V2h1.6v6.6h3.5v1.4h-5.1Z"/>
    <path class="cls-2" d="M19.1,10.1c-.7,0-1.2-.1-1.7-.4-.5-.2-.9-.6-1.2-1-.3-.4-.4-.9-.4-1.5V2h1.6v5.1c0,.3,0,.6.2.8.1.2.3.4.6.6s.5.2.9.2.6,0,.9-.2.4-.3.6-.6c.1-.2.2-.5.2-.8V2h1.6v5.2c0,.6-.1,1.1-.4,1.5-.3.4-.7.8-1.2,1s-1.1.4-1.7.4Z"/>
    <path class="cls-2" d="M26.8,10.1c-.6,0-1.2,0-1.7-.3-.5-.2-.8-.5-1.1-.9-.3-.4-.4-.9-.4-1.4h1.6c0,.3.1.5.2.7.1.2.3.3.6.4.2,0,.5.1.8.1s.5,0,.8-.1.4-.2.5-.4c.1-.2.2-.3.2-.5s0-.3-.2-.5c-.1-.1-.3-.2-.5-.3-.2,0-.5-.2-.7-.2l-.9-.2c-.7-.2-1.2-.4-1.6-.8-.4-.4-.6-.8-.6-1.4s.1-.9.4-1.3.6-.6,1.1-.8,1-.3,1.5-.3,1.1.1,1.5.3c.4.2.8.5,1,.8.2.4.4.8.4,1.2h-1.6c0-.3-.2-.6-.4-.7s-.6-.3-1-.3-.5,0-.7.1-.3.2-.4.3c-.1.1-.2.3-.2.5s0,.4.2.5c.1.1.3.2.5.3.2,0,.4.1.6.2l.7.2c.3,0,.7.2.9.3s.5.3.8.5c.2.2.4.4.5.7s.2.6.2.9c0,.5-.1.9-.4,1.3-.2.4-.6.6-1.1.8-.5.2-1,.3-1.7.3Z"/>
  </g>
</svg>