<?xml version="1.0" encoding="UTF-8"?>
<svg id="Layer_1" data-name="Layer 1" xmlns="http://www.w3.org/2000/svg" version="1.1" viewBox="0 0 400 100">
  <defs>
    <style>
      .cls-1 {
        fill: #005be9;
      }

      .cls-1, .cls-2 {
        stroke-width: 0px;
      }

      .cls-2 {
        fill: #e53835;
      }
    </style>
  </defs>
  <path class="cls-1" d="M12.2,78.2V21.7h11.6v15.4l-.2,14.4.2,5.7v21h-11.6ZM20.8,65.4v-10.5c1.2-2.1,2.3-4,3.4-5.8s2.3-3.5,3.7-5.3,2.9-3.7,4.6-5.8l13.9-16.2h14.2l-23.9,27.6-.9-.3-14.9,16.5ZM47.4,78.2l-16.8-25.5,7.3-8.7,23.1,34.2h-13.7Z"/>
  <path class="cls-1" d="M89.8,79c-5,0-9.5-1.1-13.5-3.4s-7.1-5.6-9.4-9.9c-2.3-4.3-3.5-9.5-3.5-15.7s1.2-11.4,3.5-15.7c2.3-4.3,5.5-7.6,9.4-9.9s8.5-3.4,13.5-3.4,9.5,1.1,13.5,3.4,7.1,5.6,9.4,9.9c2.3,4.3,3.5,9.6,3.5,15.7s-1.2,11.3-3.5,15.7c-2.3,4.3-5.5,7.6-9.4,9.9s-8.5,3.4-13.5,3.4ZM89.8,68.7c2.9,0,5.5-.7,7.7-2.1s3.9-3.5,5.1-6.3,1.8-6.2,1.8-10.2-.6-7.5-1.8-10.3-2.9-4.9-5.1-6.3-4.7-2.1-7.7-2.1-5.5.7-7.7,2.2-3.9,3.6-5.1,6.4-1.8,6.2-1.8,10.3.6,7.4,1.8,10.2,2.9,4.9,5.1,6.3,4.8,2.2,7.7,2.2Z"/>
  <path class="cls-1" d="M120.2,31.3v-9.6h46.2v9.6h-17.3v46.9h-11.6V31.3h-17.3Z"/>
  <path class="cls-1" d="M196.7,79c-5,0-9.5-1.1-13.5-3.4s-7.1-5.6-9.4-9.9c-2.3-4.3-3.5-9.5-3.5-15.7s1.2-11.4,3.5-15.7c2.3-4.3,5.5-7.6,9.4-9.9s8.5-3.4,13.5-3.4,9.5,1.1,13.5,3.4,7.1,5.6,9.4,9.9c2.3,4.3,3.5,9.6,3.5,15.7s-1.2,11.3-3.5,15.7c-2.3,4.3-5.5,7.6-9.4,9.9s-8.5,3.4-13.5,3.4ZM196.7,68.7c2.9,0,5.5-.7,7.7-2.1s3.9-3.5,5.1-6.3,1.8-6.2,1.8-10.2-.6-7.5-1.8-10.3-2.9-4.9-5.1-6.3-4.7-2.1-7.7-2.1-5.5.7-7.7,2.2-3.9,3.6-5.1,6.4-1.8,6.2-1.8,10.3.6,7.4,1.8,10.2,2.9,4.9,5.1,6.3,4.8,2.2,7.7,2.2Z"/>
  <path class="cls-1" d="M231.7,78.2V21.7h22.4c4.2,0,7.6.6,10.4,1.9s4.8,3,6.2,5.1,2.1,4.7,2.1,7.5-.4,4.2-1.3,5.8-2.1,3-3.6,4.1-3.3,1.8-5.2,2.3v.6c2.1,0,4.1.7,6,1.8s3.4,2.7,4.6,4.7,1.8,4.4,1.8,7.2-.7,5.7-2.2,8-3.6,4.2-6.5,5.6c-2.9,1.4-6.4,2-10.7,2h-23.9ZM243.3,45.4h9.1c1.6,0,3.1-.3,4.4-.9,1.3-.6,2.3-1.4,3.1-2.5s1.1-2.4,1.1-3.9-.7-3.7-2.2-5-3.5-1.9-6.2-1.9h-9.4v14.3ZM243.3,68.7h10c3.4,0,5.9-.7,7.4-2s2.4-3,2.4-5.2-.4-3-1.2-4.2-1.9-2.2-3.3-2.9c-1.4-.7-3.1-1-5.1-1h-10.3v15.3Z"/>
  <path class="cls-2" d="M279.8,78.2l18.3-56.5h20.9l19,56.5h-17.4l-6.6-21.9c-1.4-4.8-2.7-9.7-4-14.8-1.2-5.1-2.4-10.2-3.5-15.3h3.5c-1.1,5.1-2.1,10.2-3.2,15.3s-2.3,10.1-3.7,14.8l-6.3,21.9h-17.2ZM293.3,67.3v-11.5h31.1v11.5h-31.1Z"/>
  <path class="cls-2" d="M354.3,79.1c-2.2,0-4.1-.7-5.6-2.2s-2.2-3.3-2.2-5.5.7-4,2.2-5.5,3.4-2.2,5.6-2.2,4.1.7,5.6,2.2,2.2,3.3,2.2,5.5-.7,4-2.2,5.5-3.4,2.2-5.6,2.2Z"/>
  <path class="cls-2" d="M387.8,21.7v56.5h-15.3V21.7h15.3Z"/>
</svg>