<?xml version="1.0" encoding="utf-8"?>
<!-- Generator: Adobe Illustrator 24.0.2, SVG Export Plug-In . SVG Version: 6.00 Build 0)  -->
<svg version="1.1" id="Layer_1" xmlns="http://www.w3.org/2000/svg" xmlns:xlink="http://www.w3.org/1999/xlink" x="0px" y="0px"
	 viewBox="0 0 1140 270" style="enable-background:new 0 0 1140 270;" xml:space="preserve">
<style type="text/css">
	.st0{fill:#DBF6FD;}
	.st1{fill:#38B8CA;}
	.st2{fill:#FFFFFF;stroke:#2C8E9C;stroke-width:10;stroke-linecap:round;stroke-linejoin:round;stroke-miterlimit:10;}
	.st3{fill:#FFFFFF;}
	.st4{opacity:0.7;fill:#38B8CA;}
	.st5{fill:none;stroke:#FFFFFF;stroke-width:7.1103;stroke-miterlimit:10;}
</style>
<g>
	<path class="st0" d="M1046.3,269.9c-55.9-0.8-952.5-0.7-952.5-0.7s-75.8-106,0-194c0,0,33.4-30.3,100.3-16.8
		c16.2,40.4,53.9,89.5,139.8,70.9C473,99.2,535.1,126.2,600,162.6s142,15.4,195.4-36.4C848.9,74.4,929,102.4,959,134
		c28,29.6,93.4,42.4,133.7-37.6c106.3,71.7,7.6,174.3-46.5,173.6v-0.1H1046.3z"/>
	<path class="st1" d="M1092.7,96.4c-40.4,79.9-105.8,67.2-133.7,37.5c-29.9-31.6-110.1-59.6-163.6-7.8S664.8,198.7,600,162.5
		c-64.9-36.4-127-63.4-266.1-33.3c-86,18.6-123.7-30.5-139.9-70.9c3.1,0.6,6.1,1.3,9.4,2.1c73.1,18.5,113.2,15.4,275.2,3.1
		s481.2-45.6,603.9,26.2c3.7,2.1,7,4.3,10.3,6.5L1092.7,96.4z"/>
</g>
<image style="overflow:visible;" width="367" height="270" xlink:href="Banner.png" >
</image>
<g>
	<g>
		<path class="st2" d="M387.5,144.7v-5.3h23.3v5.3h-8.4V167h-6.5v-22.3H387.5z"/>
		<path class="st2" d="M414.1,167v-27.6h6.5v10.9h11v-10.9h6.5V167h-6.5v-11.4h-11V167H414.1z"/>
		<path class="st2" d="M441.3,167l9.2-27.6h8.8l9.5,27.6h-7.3l-3.8-12.1c-0.6-2-1.2-4.2-1.8-6.4c-0.6-2.3-1.2-4.6-1.7-7.1h1.5
			c-0.6,2.4-1.1,4.8-1.6,7.1c-0.5,2.3-1.1,4.4-1.7,6.4l-3.7,12.1H441.3z M447.5,161.1v-5h15v5H447.5z"/>
		<path class="st2" d="M471.8,167v-27.6H482l3.5,10.8c0.2,0.7,0.4,1.5,0.7,2.6c0.3,1.1,0.5,2.2,0.8,3.5c0.3,1.2,0.5,2.4,0.7,3.6
			c0.2,1.2,0.4,2.1,0.5,3H487c0.1-0.8,0.3-1.8,0.5-3c0.2-1.2,0.5-2.3,0.7-3.6c0.3-1.2,0.5-2.4,0.8-3.5c0.3-1.1,0.5-1.9,0.7-2.6
			l3.5-10.8h10.2V167h-6.6V155c0-0.6,0-1.4,0-2.4c0-1,0.1-2,0.1-3.2c0-1.1,0.1-2.3,0.1-3.4c0-1.2,0-2.2,0-3.2h0.4
			c-0.2,1.1-0.5,2.2-0.8,3.4c-0.3,1.2-0.6,2.3-0.9,3.4c-0.3,1.1-0.6,2.1-0.8,3.1c-0.3,0.9-0.5,1.7-0.7,2.3l-3.9,11.9h-5.5l-4-11.9
			c-0.2-0.6-0.4-1.4-0.7-2.3c-0.3-0.9-0.6-1.9-0.9-3.1s-0.6-2.3-0.9-3.4c-0.3-1.2-0.6-2.3-0.8-3.4h0.5c0,1,0,2,0.1,3.2
			c0,1.2,0.1,2.3,0.1,3.5c0,1.2,0.1,2.2,0.1,3.2c0,1,0,1.8,0,2.4V167H471.8z"/>
		<path class="st2" d="M528.6,167.3c-2.6,0-4.9-0.6-6.9-1.7c-2-1.1-3.5-2.8-4.7-4.9c-1.1-2.1-1.7-4.6-1.7-7.5c0-3,0.6-5.6,1.8-7.7
			c1.2-2.1,2.8-3.7,4.8-4.9c2-1.1,4.2-1.7,6.7-1.7c1.6,0,3.1,0.2,4.4,0.7c1.4,0.5,2.6,1.1,3.7,1.9c1.1,0.8,1.9,1.8,2.6,3
			c0.7,1.1,1.1,2.4,1.3,3.8h-6.6c-0.2-0.6-0.4-1.1-0.7-1.5c-0.3-0.5-0.7-0.8-1.1-1.2c-0.4-0.3-0.9-0.6-1.5-0.7
			c-0.6-0.2-1.2-0.2-1.9-0.2c-1.3,0-2.5,0.3-3.5,1c-1,0.7-1.8,1.6-2.3,2.9c-0.5,1.3-0.8,2.8-0.8,4.6c0,1.8,0.3,3.3,0.8,4.6
			c0.5,1.3,1.3,2.2,2.3,2.9c1,0.7,2.2,1,3.6,1c1.2,0,2.3-0.2,3.2-0.6c0.9-0.4,1.5-1,2-1.8c0.4-0.8,0.7-1.7,0.7-2.7l1.2,0.2h-6.8
			v-4.8h11.9v3.6c0,2.5-0.5,4.6-1.6,6.3c-1,1.8-2.5,3.1-4.3,4.1C533.1,166.9,531,167.3,528.6,167.3z"/>
		<path class="st2" d="M551.1,139.3V167h-6.5v-27.6H551.1z"/>
		<path class="st2" d="M554.1,167l9.2-27.6h8.8l9.5,27.6h-7.3l-3.8-12.1c-0.6-2-1.2-4.2-1.8-6.4c-0.6-2.3-1.2-4.6-1.7-7.1h1.5
			c-0.6,2.4-1.1,4.8-1.6,7.1c-0.5,2.3-1.1,4.4-1.7,6.4l-3.7,12.1H554.1z M560.4,161.1v-5h15v5H560.4z"/>
		<path class="st2" d="M593,167v-27.6h7.2l7.7,12.5c0.5,0.8,1,1.7,1.5,2.6c0.5,0.9,0.9,1.9,1.4,2.9c0.5,1.1,0.9,2.3,1.4,3.7h-0.6
			c-0.1-1-0.2-2.1-0.2-3.4c-0.1-1.2-0.2-2.4-0.2-3.6c-0.1-1.2-0.1-2.2-0.1-3v-11.8h6.7V167h-7.2l-7.1-11.4c-0.6-1.1-1.2-2-1.7-3
			c-0.5-0.9-1-2-1.5-3.1c-0.5-1.1-1.1-2.4-1.8-3.9h0.8c0.1,1.3,0.2,2.6,0.3,3.9c0.1,1.3,0.1,2.4,0.2,3.5c0,1,0.1,1.9,0.1,2.6V167
			H593z"/>
		<path class="st2" d="M634.7,167.3c-2.6,0-4.9-0.6-6.9-1.7c-2-1.1-3.5-2.8-4.7-4.9c-1.1-2.1-1.7-4.6-1.7-7.5c0-3,0.6-5.6,1.8-7.7
			c1.2-2.1,2.8-3.7,4.8-4.9c2-1.1,4.2-1.7,6.7-1.7c1.6,0,3.1,0.2,4.4,0.7c1.4,0.5,2.6,1.1,3.7,1.9c1.1,0.8,1.9,1.8,2.6,3
			c0.7,1.1,1.1,2.4,1.3,3.8h-6.6c-0.2-0.6-0.4-1.1-0.7-1.5c-0.3-0.5-0.7-0.8-1.1-1.2c-0.4-0.3-0.9-0.6-1.5-0.7
			c-0.6-0.2-1.2-0.2-1.9-0.2c-1.3,0-2.5,0.3-3.5,1c-1,0.7-1.8,1.6-2.3,2.9c-0.5,1.3-0.8,2.8-0.8,4.6c0,1.8,0.3,3.3,0.8,4.6
			c0.5,1.3,1.3,2.2,2.3,2.9c1,0.7,2.2,1,3.6,1c1.2,0,2.3-0.2,3.2-0.6c0.9-0.4,1.5-1,2-1.8c0.4-0.8,0.7-1.7,0.7-2.7l1.2,0.2H635v-4.8
			h11.9v3.6c0,2.5-0.5,4.6-1.6,6.3c-1,1.8-2.5,3.1-4.3,4.1C639.1,166.9,637,167.3,634.7,167.3z"/>
		<path class="st2" d="M648.5,167l9.2-27.6h8.8L676,167h-7.3l-3.8-12.1c-0.6-2-1.2-4.2-1.8-6.4c-0.6-2.3-1.2-4.6-1.7-7.1h1.5
			c-0.6,2.4-1.1,4.8-1.6,7.1c-0.5,2.3-1.1,4.4-1.7,6.4l-3.7,12.1H648.5z M654.8,161.1v-5h15v5H654.8z"/>
		<path class="st2" d="M685.2,167v-10l-10.3-17.6h7.7l4.3,8.5c0.4,0.8,0.8,1.6,1.1,2.5c0.3,0.8,0.7,1.8,1,2.9H688
			c0.3-1.1,0.6-2.1,1-2.9c0.3-0.8,0.7-1.6,1.1-2.4l4.1-8.5h7.6l-10,17.6v10H685.2z"/>
		<path class="st2" d="M725.6,167.3c-2.5,0-4.7-0.5-6.7-1.7c-2-1.1-3.5-2.7-4.7-4.8c-1.1-2.1-1.7-4.7-1.7-7.7c0-3,0.6-5.6,1.7-7.7
			c1.2-2.1,2.7-3.7,4.7-4.8c2-1.1,4.2-1.7,6.6-1.7c1.6,0,3.2,0.2,4.6,0.7c1.4,0.5,2.6,1.1,3.7,2c1.1,0.9,2,1.9,2.6,3.2
			c0.7,1.3,1.1,2.7,1.3,4.3h-6.6c-0.1-0.7-0.3-1.3-0.6-1.8c-0.3-0.5-0.7-1-1.1-1.4c-0.5-0.4-1-0.7-1.6-0.9c-0.6-0.2-1.3-0.3-2-0.3
			c-1.3,0-2.5,0.3-3.5,1c-1,0.7-1.7,1.6-2.3,2.9c-0.5,1.3-0.8,2.8-0.8,4.6c0,1.8,0.3,3.4,0.8,4.6c0.5,1.3,1.3,2.2,2.3,2.8
			c1,0.6,2.1,0.9,3.4,0.9c0.7,0,1.4-0.1,2-0.3c0.6-0.2,1.2-0.5,1.6-0.9c0.5-0.4,0.9-0.8,1.2-1.4c0.3-0.5,0.5-1.1,0.6-1.8h6.6
			c-0.1,1.2-0.5,2.5-1.1,3.6c-0.6,1.2-1.4,2.3-2.4,3.3c-1,1-2.3,1.8-3.7,2.3C729.1,167,727.4,167.3,725.6,167.3z"/>
		<path class="st2" d="M753.9,167.3c-2.5,0-4.7-0.5-6.7-1.7c-2-1.1-3.6-2.7-4.7-4.8c-1.2-2.1-1.7-4.7-1.7-7.7c0-3,0.6-5.6,1.7-7.7
			c1.2-2.1,2.7-3.7,4.7-4.8c2-1.1,4.2-1.7,6.7-1.7c2.5,0,4.7,0.6,6.7,1.7c2,1.1,3.6,2.7,4.7,4.8c1.2,2.1,1.7,4.7,1.7,7.7
			c0,3-0.6,5.6-1.7,7.7c-1.2,2.1-2.7,3.7-4.7,4.8C758.6,166.8,756.4,167.3,753.9,167.3z M751.3,136.6h-5.5v-0.1l5.8-5.7h4.7l5.8,5.7
			v0.1h-5.5l-2.6-3.1L751.3,136.6z M753.9,161.6c1.3,0,2.5-0.3,3.5-1c1-0.6,1.7-1.6,2.2-2.8c0.5-1.3,0.8-2.8,0.8-4.6
			c0-1.8-0.3-3.4-0.8-4.6s-1.3-2.2-2.2-2.9c-1-0.6-2.1-1-3.5-1c-1.3,0-2.5,0.3-3.5,1c-1,0.6-1.7,1.6-2.2,2.9
			c-0.5,1.3-0.8,2.8-0.8,4.6c0,1.8,0.3,3.4,0.8,4.6c0.5,1.3,1.3,2.2,2.2,2.8C751.4,161.2,752.6,161.6,753.9,161.6z M753.9,175.6
			c-0.9,0-1.7-0.3-2.4-0.9c-0.7-0.6-1-1.3-1-2.2c0-0.9,0.3-1.6,1-2.2c0.7-0.6,1.4-0.9,2.4-0.9c0.9,0,1.7,0.3,2.4,0.9
			c0.7,0.6,1,1.3,1,2.2c0,0.9-0.3,1.6-1,2.2C755.6,175.3,754.8,175.6,753.9,175.6z"/>
		<path class="st2" d="M770.7,167v-27.6h7.2l7.7,12.5c0.5,0.8,1,1.7,1.5,2.6c0.5,0.9,0.9,1.9,1.4,2.9c0.5,1.1,0.9,2.3,1.4,3.7h-0.6
			c-0.1-1-0.2-2.1-0.2-3.4c-0.1-1.2-0.2-2.4-0.2-3.6c-0.1-1.2-0.1-2.2-0.1-3v-11.8h6.7V167h-7.2l-7.1-11.4c-0.6-1.1-1.2-2-1.7-3
			c-0.5-0.9-1-2-1.5-3.1c-0.5-1.1-1.1-2.4-1.8-3.9h0.8c0.1,1.3,0.2,2.6,0.3,3.9c0.1,1.3,0.1,2.4,0.2,3.5c0,1,0.1,1.9,0.1,2.6V167
			H770.7z"/>
		<path class="st2" d="M812.5,167.3c-2.6,0-4.9-0.6-6.9-1.7c-2-1.1-3.5-2.8-4.7-4.9c-1.1-2.1-1.7-4.6-1.7-7.5c0-3,0.6-5.6,1.8-7.7
			c1.2-2.1,2.8-3.7,4.8-4.9c2-1.1,4.2-1.7,6.7-1.7c1.6,0,3.1,0.2,4.4,0.7c1.4,0.5,2.6,1.1,3.7,1.9c1.1,0.8,1.9,1.8,2.6,3
			c0.7,1.1,1.1,2.4,1.3,3.8h-6.6c-0.2-0.6-0.4-1.1-0.7-1.5c-0.3-0.5-0.7-0.8-1.1-1.2c-0.4-0.3-0.9-0.6-1.5-0.7
			c-0.6-0.2-1.2-0.2-1.9-0.2c-1.3,0-2.5,0.3-3.5,1c-1,0.7-1.8,1.6-2.3,2.9c-0.5,1.3-0.8,2.8-0.8,4.6c0,1.8,0.3,3.3,0.8,4.6
			c0.5,1.3,1.3,2.2,2.3,2.9c1,0.7,2.2,1,3.6,1c1.2,0,2.3-0.2,3.2-0.6c0.9-0.4,1.5-1,2-1.8c0.4-0.8,0.7-1.7,0.7-2.7l1.2,0.2h-6.8
			v-4.8h11.9v3.6c0,2.5-0.5,4.6-1.6,6.3c-1,1.8-2.5,3.1-4.3,4.1C816.9,166.9,814.8,167.3,812.5,167.3z"/>
		<path class="st2" d="M835,155.2V151h15.4v4.2H835z M845.1,139.3V167h-6.5v-27.6H845.1z M848.7,167h-7.3v-5.6h7.1
			c1.6,0,2.9-0.3,4-0.8c1.1-0.5,1.9-1.4,2.5-2.6c0.6-1.2,0.8-2.8,0.8-4.8c0-2-0.3-3.6-0.9-4.8c-0.6-1.2-1.4-2.1-2.5-2.6
			c-1.1-0.5-2.5-0.8-4.1-0.8h-7.1v-5.6h7.5c2.8,0,5.2,0.6,7.3,1.7c2,1.1,3.6,2.7,4.7,4.8c1.1,2.1,1.7,4.5,1.7,7.4
			c0,2.9-0.5,5.3-1.6,7.4c-1.1,2.1-2.7,3.7-4.7,4.8C854,166.4,851.5,167,848.7,167z"/>
		<path class="st2" d="M878.5,167.3c-2.5,0-4.7-0.5-6.7-1.7c-2-1.1-3.6-2.7-4.7-4.8c-1.2-2.1-1.7-4.7-1.7-7.7c0-3,0.6-5.6,1.7-7.7
			c1.2-2.1,2.7-3.7,4.7-4.8c2-1.1,4.2-1.7,6.7-1.7c2.5,0,4.7,0.6,6.7,1.7c2,1.1,3.6,2.7,4.7,4.8c1.2,2.1,1.7,4.7,1.7,7.7
			c0,3-0.6,5.6-1.7,7.7c-1.2,2.1-2.7,3.7-4.7,4.8C883.3,166.8,881,167.3,878.5,167.3z M875.9,137.1h-5.5V137l5.8-5.7h4.7l5.8,5.7
			v0.1h-5.5l-2.6-3.1L875.9,137.1z M878.5,161.6c1.3,0,2.5-0.3,3.5-1c1-0.6,1.7-1.6,2.2-2.8c0.5-1.3,0.8-2.8,0.8-4.6
			c0-1.8-0.3-3.4-0.8-4.6s-1.3-2.2-2.2-2.9c-1-0.6-2.1-1-3.5-1c-1.3,0-2.5,0.3-3.5,1c-1,0.6-1.7,1.6-2.2,2.9
			c-0.5,1.3-0.8,2.8-0.8,4.6c0,1.8,0.3,3.4,0.8,4.6c0.5,1.3,1.3,2.2,2.2,2.8C876,161.2,877.2,161.6,878.5,161.6z M883.4,129.8
			l-3.3-4.9h4.8l2.2,4.9H883.4z"/>
		<path class="st2" d="M895.4,167v-27.6h7.2l7.7,12.5c0.5,0.8,1,1.7,1.5,2.6c0.5,0.9,0.9,1.9,1.4,2.9c0.5,1.1,0.9,2.3,1.4,3.7H914
			c-0.1-1-0.2-2.1-0.2-3.4c-0.1-1.2-0.2-2.4-0.2-3.6c-0.1-1.2-0.1-2.2-0.1-3v-11.8h6.7V167h-7.2l-7.1-11.4c-0.6-1.1-1.2-2-1.7-3
			c-0.5-0.9-1-2-1.5-3.1c-0.5-1.1-1.1-2.4-1.8-3.9h0.8c0.1,1.3,0.2,2.6,0.3,3.9c0.1,1.3,0.1,2.4,0.2,3.5c0,1,0.1,1.9,0.1,2.6V167
			H895.4z"/>
		<path class="st2" d="M937.1,167.3c-2.6,0-4.9-0.6-6.9-1.7c-2-1.1-3.5-2.8-4.7-4.9c-1.1-2.1-1.7-4.6-1.7-7.5c0-3,0.6-5.6,1.8-7.7
			c1.2-2.1,2.8-3.7,4.8-4.9c2-1.1,4.2-1.7,6.7-1.7c1.6,0,3.1,0.2,4.4,0.7c1.4,0.5,2.6,1.1,3.7,1.9c1.1,0.8,1.9,1.8,2.6,3
			c0.7,1.1,1.1,2.4,1.3,3.8h-6.6c-0.2-0.6-0.4-1.1-0.7-1.5c-0.3-0.5-0.7-0.8-1.1-1.2c-0.4-0.3-0.9-0.6-1.5-0.7
			c-0.6-0.2-1.2-0.2-1.9-0.2c-1.3,0-2.5,0.3-3.5,1c-1,0.7-1.8,1.6-2.3,2.9c-0.5,1.3-0.8,2.8-0.8,4.6c0,1.8,0.3,3.3,0.8,4.6
			c0.5,1.3,1.3,2.2,2.3,2.9c1,0.7,2.2,1,3.6,1c1.2,0,2.3-0.2,3.2-0.6c0.9-0.4,1.5-1,2-1.8c0.4-0.8,0.7-1.7,0.7-2.7l1.2,0.2h-6.8
			v-4.8h11.9v3.6c0,2.5-0.5,4.6-1.6,6.3c-1,1.8-2.5,3.1-4.3,4.1C941.6,166.9,939.5,167.3,937.1,167.3z"/>
		<path class="st2" d="M534.7,217l-9.5-27.6h7.4l3.8,12.1c0.6,2,1.2,4.1,1.8,6.3c0.6,2.2,1.1,4.5,1.7,7h-1.4c0.6-2.4,1.1-4.8,1.6-7
			c0.5-2.2,1.1-4.3,1.7-6.3l3.7-12.1h7.3l-9.2,27.6H534.7z"/>
		<path class="st2" d="M567.4,217.3c-2.3,0-4.4-0.4-6.1-1.3c-1.8-0.8-3.1-2-4.1-3.5c-1-1.5-1.5-3.3-1.5-5.4v-17.8h6.5v17.3
			c0,1,0.2,1.8,0.6,2.6c0.4,0.8,1,1.3,1.8,1.8c0.8,0.4,1.6,0.6,2.7,0.6c1,0,1.9-0.2,2.7-0.6c0.8-0.4,1.4-1,1.8-1.8
			c0.4-0.8,0.6-1.6,0.6-2.6v-17.3h6.5v17.8c0,2.1-0.5,3.8-1.5,5.4c-1,1.5-2.3,2.7-4.1,3.5C571.7,216.9,569.7,217.3,567.4,217.3z
			 M572.5,193.3v-4h3.5c0.3,0,0.5-0.2,0.5-0.5v-3.3h5.7v3.7c0,1.4-0.4,2.5-1.2,3.1c-0.8,0.7-1.9,1-3.2,1H572.5z"/>
		<path class="st2" d="M595.9,217.3c-2.5,0-4.7-0.5-6.7-1.7c-2-1.1-3.6-2.7-4.7-4.8c-1.2-2.1-1.7-4.7-1.7-7.7c0-3,0.6-5.6,1.7-7.7
			c1.2-2.1,2.7-3.7,4.7-4.8c2-1.1,4.2-1.7,6.7-1.7c2.5,0,4.7,0.6,6.7,1.7c2,1.1,3.6,2.7,4.7,4.8c1.2,2.1,1.7,4.7,1.7,7.7
			c0,3-0.6,5.6-1.7,7.7c-1.2,2.1-2.7,3.7-4.7,4.8C600.6,216.8,598.4,217.3,595.9,217.3z M595.9,211.6c1.3,0,2.5-0.3,3.5-1
			c1-0.6,1.7-1.6,2.2-2.8c0.5-1.3,0.8-2.8,0.8-4.6c0-1.8-0.3-3.4-0.8-4.6s-1.3-2.2-2.2-2.9c-1-0.6-2.1-1-3.5-1c-1.3,0-2.5,0.3-3.5,1
			c-1,0.6-1.7,1.6-2.2,2.9c-0.5,1.3-0.8,2.8-0.8,4.6c0,1.8,0.3,3.4,0.8,4.6c0.5,1.3,1.3,2.2,2.2,2.8
			C593.4,211.2,594.5,211.6,595.9,211.6z M595.9,225.6c-0.9,0-1.7-0.3-2.4-0.9c-0.7-0.6-1-1.3-1-2.2c0-0.9,0.3-1.6,1-2.2
			c0.7-0.6,1.4-0.9,2.4-0.9c0.9,0,1.7,0.3,2.4,0.9c0.7,0.6,1,1.3,1,2.2c0,0.9-0.3,1.6-1,2.2C597.6,225.3,596.8,225.6,595.9,225.6z
			 M596.1,192.9v-3.9c0.6,0,1.1,0,1.5,0.1c0.4,0,0.9,0.1,1.3,0.1c0.5,0,1,0.1,1.7,0.1c0.6,0,1.4,0.1,2.4,0.1c0.4,0,0.5-0.2,0.5-0.5
			v-3.3h5.7v3.7c0,1.4-0.4,2.4-1.2,3c-0.8,0.6-1.9,0.9-3.2,0.9c-0.7,0-1.3,0-2,0c-0.6,0-1.3-0.1-2-0.1c-0.7,0-1.4-0.1-2.2-0.1
			C597.9,192.9,597.1,192.9,596.1,192.9z"/>
		<path class="st2" d="M611.2,194.7v-5.3h23.3v5.3h-8.4V217h-6.5v-22.3H611.2z"/>
		<path class="st2" d="M646.1,217v-27.6h6.5v6.8l-0.1,7.5l0.1,3.2V217H646.1z M651.1,211.4v-5.7c0.5-1.1,1.1-2.1,1.6-3
			c0.5-0.9,1.1-1.8,1.8-2.7c0.6-0.9,1.4-1.9,2.3-3.1l6.2-7.6h7.9l-11.6,13.9l-0.6-0.2L651.1,211.4z M663.4,217l-7.5-11.8l4.1-4.8
			l11,16.7H663.4z"/>
		<path class="st2" d="M674.2,217v-27.6h6.5v10.9h11v-10.9h6.5V217h-6.5v-11.4h-11V217H674.2z"/>
		<path class="st2" d="M715.2,217.3c-2.5,0-4.7-0.5-6.7-1.7c-2-1.1-3.6-2.7-4.7-4.8c-1.2-2.1-1.7-4.7-1.7-7.7c0-3,0.6-5.6,1.7-7.7
			c1.2-2.1,2.7-3.7,4.7-4.8c2-1.1,4.2-1.7,6.7-1.7c2.5,0,4.7,0.6,6.7,1.7c2,1.1,3.6,2.7,4.7,4.8c1.2,2.1,1.7,4.7,1.7,7.7
			c0,3-0.6,5.6-1.7,7.7c-1.2,2.1-2.7,3.7-4.7,4.8C719.9,216.8,717.7,217.3,715.2,217.3z M715.2,211.6c1.3,0,2.5-0.3,3.5-1
			c1-0.6,1.7-1.6,2.2-2.8c0.5-1.3,0.8-2.8,0.8-4.6c0-1.8-0.3-3.4-0.8-4.6s-1.3-2.2-2.2-2.9c-1-0.6-2.1-1-3.5-1c-1.3,0-2.5,0.3-3.5,1
			c-1,0.6-1.7,1.6-2.2,2.9c-0.5,1.3-0.8,2.8-0.8,4.6c0,1.8,0.3,3.4,0.8,4.6c0.5,1.3,1.3,2.2,2.2,2.8
			C712.7,211.2,713.8,211.6,715.2,211.6z M712.9,186.7l2.6-5.9h5.8l-4,5.9H712.9z"/>
		<path class="st2" d="M748.9,217.3c-3,0-5.4-0.8-7.1-2.3c-1.7-1.5-2.6-3.7-2.6-6.5v-1.7h6.5v1.8c0,1.2,0.3,2.1,0.8,2.7
			s1.3,0.9,2.3,0.9c1,0,1.7-0.3,2.3-0.9c0.6-0.6,0.8-1.5,0.8-2.7v-19.3h6.5v19.1c0,2.8-0.8,5-2.5,6.6
			C754.2,216.6,751.9,217.3,748.9,217.3z"/>
		<path class="st2" d="M762.7,217v-27.6h11.3c2.1,0,3.9,0.4,5.4,1.2c1.5,0.8,2.7,1.9,3.5,3.4c0.8,1.4,1.2,3.1,1.2,5
			c0,1.9-0.4,3.6-1.2,5c-0.8,1.4-2,2.5-3.5,3.3c-1.5,0.8-3.4,1.2-5.5,1.2h-7v-5.2h5.8c1,0,1.9-0.2,2.6-0.5c0.7-0.4,1.2-0.9,1.6-1.5
			c0.3-0.6,0.5-1.4,0.5-2.2c0-0.9-0.2-1.6-0.5-2.3c-0.3-0.6-0.9-1.1-1.6-1.5c-0.7-0.3-1.6-0.5-2.6-0.5h-3.4V217H762.7z"/>
		<path class="st2" d="M794.1,189.3V217h-6.5v-27.6H794.1z M797.7,217h-7.3v-5.6h7.1c1.6,0,2.9-0.3,4-0.8c1.1-0.5,1.9-1.4,2.5-2.6
			c0.6-1.2,0.8-2.8,0.8-4.8c0-2-0.3-3.6-0.9-4.8c-0.6-1.2-1.4-2.1-2.5-2.6c-1.1-0.5-2.5-0.8-4.1-0.8h-7.1v-5.6h7.5
			c2.8,0,5.2,0.6,7.3,1.7c2,1.1,3.6,2.7,4.7,4.8c1.1,2.1,1.7,4.5,1.7,7.4c0,2.9-0.5,5.3-1.6,7.4c-1.1,2.1-2.7,3.7-4.7,4.8
			C802.9,216.4,800.5,217,797.7,217z"/>
	</g>
	<g>
		<g>
			<path class="st3" d="M385.6,144.7v-5.3h23.3v5.3h-8.4V167H394v-22.3H385.6z"/>
			<path class="st3" d="M412.3,167v-27.6h6.5v10.9h11v-10.9h6.5V167h-6.5v-11.4h-11V167H412.3z"/>
			<path class="st3" d="M439.4,167l9.2-27.6h8.8l9.5,27.6h-7.3l-3.8-12.1c-0.6-2-1.2-4.2-1.8-6.4c-0.6-2.3-1.2-4.6-1.7-7.1h1.5
				c-0.6,2.4-1.1,4.8-1.6,7.1c-0.5,2.3-1.1,4.4-1.7,6.4l-3.7,12.1H439.4z M445.7,161.1v-5h15v5H445.7z"/>
			<path class="st3" d="M470,167v-27.6h10.2l3.5,10.8c0.2,0.7,0.4,1.5,0.7,2.6c0.3,1.1,0.5,2.2,0.8,3.5c0.3,1.2,0.5,2.4,0.7,3.6
				c0.2,1.2,0.4,2.1,0.5,3h-1.2c0.1-0.8,0.3-1.8,0.5-3c0.2-1.2,0.5-2.3,0.7-3.6c0.3-1.2,0.5-2.4,0.8-3.5c0.3-1.1,0.5-1.9,0.7-2.6
				l3.5-10.8h10.2V167h-6.6V155c0-0.6,0-1.4,0-2.4c0-1,0.1-2,0.1-3.2c0-1.1,0.1-2.3,0.1-3.4c0-1.2,0-2.2,0-3.2h0.4
				c-0.2,1.1-0.5,2.2-0.8,3.4c-0.3,1.2-0.6,2.3-0.9,3.4c-0.3,1.1-0.6,2.1-0.8,3.1c-0.3,0.9-0.5,1.7-0.7,2.3l-3.9,11.9H483l-4-11.9
				c-0.2-0.6-0.4-1.4-0.7-2.3c-0.3-0.9-0.6-1.9-0.9-3.1s-0.6-2.3-0.9-3.4c-0.3-1.2-0.6-2.3-0.8-3.4h0.5c0,1,0,2,0.1,3.2
				c0,1.2,0.1,2.3,0.1,3.5c0,1.2,0.1,2.2,0.1,3.2c0,1,0,1.8,0,2.4V167H470z"/>
			<path class="st3" d="M526.8,167.3c-2.6,0-4.9-0.6-6.9-1.7c-2-1.1-3.5-2.8-4.7-4.9c-1.1-2.1-1.7-4.6-1.7-7.5c0-3,0.6-5.6,1.8-7.7
				c1.2-2.1,2.8-3.7,4.8-4.9c2-1.1,4.2-1.7,6.7-1.7c1.6,0,3.1,0.2,4.4,0.7c1.4,0.5,2.6,1.1,3.7,1.9c1.1,0.8,1.9,1.8,2.6,3
				c0.7,1.1,1.1,2.4,1.3,3.8H532c-0.2-0.6-0.4-1.1-0.7-1.5c-0.3-0.5-0.7-0.8-1.1-1.2c-0.4-0.3-0.9-0.6-1.5-0.7
				c-0.6-0.2-1.2-0.2-1.9-0.2c-1.3,0-2.5,0.3-3.5,1c-1,0.7-1.8,1.6-2.3,2.9c-0.5,1.3-0.8,2.8-0.8,4.6c0,1.8,0.3,3.3,0.8,4.6
				c0.5,1.3,1.3,2.2,2.3,2.9c1,0.7,2.2,1,3.6,1c1.2,0,2.3-0.2,3.2-0.6c0.9-0.4,1.5-1,2-1.8c0.4-0.8,0.7-1.7,0.7-2.7l1.2,0.2h-6.8
				v-4.8h11.9v3.6c0,2.5-0.5,4.6-1.6,6.3c-1,1.8-2.5,3.1-4.3,4.1C531.2,166.9,529.1,167.3,526.8,167.3z"/>
			<path class="st3" d="M549.3,139.3V167h-6.5v-27.6H549.3z"/>
			<path class="st3" d="M552.3,167l9.2-27.6h8.8l9.5,27.6h-7.3l-3.8-12.1c-0.6-2-1.2-4.2-1.8-6.4c-0.6-2.3-1.2-4.6-1.7-7.1h1.5
				c-0.6,2.4-1.1,4.8-1.6,7.1c-0.5,2.3-1.1,4.4-1.7,6.4l-3.7,12.1H552.3z M558.6,161.1v-5h15v5H558.6z"/>
			<path class="st3" d="M591.1,167v-27.6h7.2l7.7,12.5c0.5,0.8,1,1.7,1.5,2.6c0.5,0.9,0.9,1.9,1.4,2.9c0.5,1.1,0.9,2.3,1.4,3.7h-0.6
				c-0.1-1-0.2-2.1-0.2-3.4c-0.1-1.2-0.2-2.4-0.2-3.6c-0.1-1.2-0.1-2.2-0.1-3v-11.8h6.7V167h-7.2l-7.1-11.4c-0.6-1.1-1.2-2-1.7-3
				c-0.5-0.9-1-2-1.5-3.1c-0.5-1.1-1.1-2.4-1.8-3.9h0.8c0.1,1.3,0.2,2.6,0.3,3.9c0.1,1.3,0.1,2.4,0.2,3.5c0,1,0.1,1.9,0.1,2.6V167
				H591.1z"/>
			<path class="st3" d="M632.9,167.3c-2.6,0-4.9-0.6-6.9-1.7c-2-1.1-3.5-2.8-4.7-4.9c-1.1-2.1-1.7-4.6-1.7-7.5c0-3,0.6-5.6,1.8-7.7
				c1.2-2.1,2.8-3.7,4.8-4.9c2-1.1,4.2-1.7,6.7-1.7c1.6,0,3.1,0.2,4.4,0.7c1.4,0.5,2.6,1.1,3.7,1.9c1.1,0.8,1.9,1.8,2.6,3
				c0.7,1.1,1.1,2.4,1.3,3.8h-6.6c-0.2-0.6-0.4-1.1-0.7-1.5c-0.3-0.5-0.7-0.8-1.1-1.2c-0.4-0.3-0.9-0.6-1.5-0.7
				c-0.6-0.2-1.2-0.2-1.9-0.2c-1.3,0-2.5,0.3-3.5,1c-1,0.7-1.8,1.6-2.3,2.9c-0.5,1.3-0.8,2.8-0.8,4.6c0,1.8,0.3,3.3,0.8,4.6
				c0.5,1.3,1.3,2.2,2.3,2.9c1,0.7,2.2,1,3.6,1c1.2,0,2.3-0.2,3.2-0.6c0.9-0.4,1.5-1,2-1.8c0.4-0.8,0.7-1.7,0.7-2.7l1.2,0.2h-6.8
				v-4.8H645v3.6c0,2.5-0.5,4.6-1.6,6.3c-1,1.8-2.5,3.1-4.3,4.1C637.3,166.9,635.2,167.3,632.9,167.3z"/>
			<path class="st3" d="M647.5,167l9.2-27.6h8.8L675,167h-7.3l-3.8-12.1c-0.6-2-1.2-4.2-1.8-6.4c-0.6-2.3-1.2-4.6-1.7-7.1h1.5
				c-0.6,2.4-1.1,4.8-1.6,7.1c-0.5,2.3-1.1,4.4-1.7,6.4l-3.7,12.1H647.5z M653.8,161.1v-5h15v5H653.8z"/>
			<path class="st3" d="M687.1,167v-10l-10.3-17.6h7.7l4.3,8.5c0.4,0.8,0.8,1.6,1.1,2.5c0.3,0.8,0.7,1.8,1,2.9h-1.2
				c0.3-1.1,0.6-2.1,1-2.9c0.3-0.8,0.7-1.6,1.1-2.4l4.1-8.5h7.6l-10,17.6v10H687.1z"/>
			<path class="st3" d="M727.4,167.3c-2.5,0-4.7-0.5-6.7-1.7c-2-1.1-3.5-2.7-4.7-4.8c-1.1-2.1-1.7-4.7-1.7-7.7c0-3,0.6-5.6,1.7-7.7
				c1.2-2.1,2.7-3.7,4.7-4.8c2-1.1,4.2-1.7,6.6-1.7c1.6,0,3.2,0.2,4.6,0.7c1.4,0.5,2.6,1.1,3.7,2c1.1,0.9,2,1.9,2.6,3.2
				c0.7,1.3,1.1,2.7,1.3,4.3H733c-0.1-0.7-0.3-1.3-0.6-1.8c-0.3-0.5-0.7-1-1.1-1.4c-0.5-0.4-1-0.7-1.6-0.9c-0.6-0.2-1.3-0.3-2-0.3
				c-1.3,0-2.5,0.3-3.5,1c-1,0.7-1.7,1.6-2.3,2.9c-0.5,1.3-0.8,2.8-0.8,4.6c0,1.8,0.3,3.4,0.8,4.6c0.5,1.3,1.3,2.2,2.3,2.8
				c1,0.6,2.1,0.9,3.4,0.9c0.7,0,1.4-0.1,2-0.3c0.6-0.2,1.2-0.5,1.6-0.9c0.5-0.4,0.9-0.8,1.2-1.4c0.3-0.5,0.5-1.1,0.6-1.8h6.6
				c-0.1,1.2-0.5,2.5-1.1,3.6c-0.6,1.2-1.4,2.3-2.4,3.3c-1,1-2.3,1.8-3.7,2.3C730.9,167,729.3,167.3,727.4,167.3z"/>
			<path class="st3" d="M755.7,167.3c-2.5,0-4.7-0.5-6.7-1.7c-2-1.1-3.6-2.7-4.7-4.8c-1.2-2.1-1.7-4.7-1.7-7.7c0-3,0.6-5.6,1.7-7.7
				c1.2-2.1,2.7-3.7,4.7-4.8c2-1.1,4.2-1.7,6.7-1.7c2.5,0,4.7,0.6,6.7,1.7c2,1.1,3.6,2.7,4.7,4.8c1.2,2.1,1.7,4.7,1.7,7.7
				c0,3-0.6,5.6-1.7,7.7c-1.2,2.1-2.7,3.7-4.7,4.8C760.4,166.8,758.2,167.3,755.7,167.3z M753.1,136.6h-5.5v-0.1l5.8-5.7h4.7
				l5.8,5.7v0.1h-5.5l-2.6-3.1L753.1,136.6z M755.7,161.6c1.3,0,2.5-0.3,3.5-1c1-0.6,1.7-1.6,2.2-2.8c0.5-1.3,0.8-2.8,0.8-4.6
				c0-1.8-0.3-3.4-0.8-4.6s-1.3-2.2-2.2-2.9c-1-0.6-2.1-1-3.5-1c-1.3,0-2.5,0.3-3.5,1c-1,0.6-1.7,1.6-2.2,2.9
				c-0.5,1.3-0.8,2.8-0.8,4.6c0,1.8,0.3,3.4,0.8,4.6c0.5,1.3,1.3,2.2,2.2,2.8C753.2,161.2,754.4,161.6,755.7,161.6z M755.7,175.6
				c-0.9,0-1.7-0.3-2.4-0.9c-0.7-0.6-1-1.3-1-2.2c0-0.9,0.3-1.6,1-2.2c0.7-0.6,1.4-0.9,2.4-0.9c0.9,0,1.7,0.3,2.4,0.9
				c0.7,0.6,1,1.3,1,2.2c0,0.9-0.3,1.6-1,2.2C757.5,175.3,756.7,175.6,755.7,175.6z"/>
			<path class="st3" d="M772.6,167v-27.6h7.2l7.7,12.5c0.5,0.8,1,1.7,1.5,2.6c0.5,0.9,0.9,1.9,1.4,2.9c0.5,1.1,0.9,2.3,1.4,3.7h-0.6
				c-0.1-1-0.2-2.1-0.2-3.4c-0.1-1.2-0.2-2.4-0.2-3.6c-0.1-1.2-0.1-2.2-0.1-3v-11.8h6.7V167h-7.2l-7.1-11.4c-0.6-1.1-1.2-2-1.7-3
				c-0.5-0.9-1-2-1.5-3.1c-0.5-1.1-1.1-2.4-1.8-3.9h0.8c0.1,1.3,0.2,2.6,0.3,3.9c0.1,1.3,0.1,2.4,0.2,3.5c0,1,0.1,1.9,0.1,2.6V167
				H772.6z"/>
			<path class="st3" d="M814.3,167.3c-2.6,0-4.9-0.6-6.9-1.7c-2-1.1-3.5-2.8-4.7-4.9c-1.1-2.1-1.7-4.6-1.7-7.5c0-3,0.6-5.6,1.8-7.7
				c1.2-2.1,2.8-3.7,4.8-4.9c2-1.1,4.2-1.7,6.7-1.7c1.6,0,3.1,0.2,4.4,0.7c1.4,0.5,2.6,1.1,3.7,1.9c1.1,0.8,1.9,1.8,2.6,3
				c0.7,1.1,1.1,2.4,1.3,3.8h-6.6c-0.2-0.6-0.4-1.1-0.7-1.5c-0.3-0.5-0.7-0.8-1.1-1.2c-0.4-0.3-0.9-0.6-1.5-0.7
				c-0.6-0.2-1.2-0.2-1.9-0.2c-1.3,0-2.5,0.3-3.5,1c-1,0.7-1.8,1.6-2.3,2.9c-0.5,1.3-0.8,2.8-0.8,4.6c0,1.8,0.3,3.3,0.8,4.6
				c0.5,1.3,1.3,2.2,2.3,2.9c1,0.7,2.2,1,3.6,1c1.2,0,2.3-0.2,3.2-0.6c0.9-0.4,1.5-1,2-1.8c0.4-0.8,0.7-1.7,0.7-2.7l1.2,0.2h-6.8
				v-4.8h11.9v3.6c0,2.5-0.5,4.6-1.6,6.3c-1,1.8-2.5,3.1-4.3,4.1C818.8,166.9,816.7,167.3,814.3,167.3z"/>
			<path class="st3" d="M836.8,155.2V151h15.4v4.2H836.8z M846.9,139.3V167h-6.5v-27.6H846.9z M850.6,167h-7.3v-5.6h7.1
				c1.6,0,2.9-0.3,4-0.8c1.1-0.5,1.9-1.4,2.5-2.6c0.6-1.2,0.8-2.8,0.8-4.8c0-2-0.3-3.6-0.9-4.8c-0.6-1.2-1.4-2.1-2.5-2.6
				c-1.1-0.5-2.5-0.8-4.1-0.8h-7.1v-5.6h7.5c2.8,0,5.2,0.6,7.3,1.7c2,1.1,3.6,2.7,4.7,4.8c1.1,2.1,1.7,4.5,1.7,7.4
				c0,2.9-0.5,5.3-1.6,7.4c-1.1,2.1-2.7,3.7-4.7,4.8C855.8,166.4,853.4,167,850.6,167z"/>
			<path class="st3" d="M880.4,167.3c-2.5,0-4.7-0.5-6.7-1.7c-2-1.1-3.6-2.7-4.7-4.8c-1.2-2.1-1.7-4.7-1.7-7.7c0-3,0.6-5.6,1.7-7.7
				c1.2-2.1,2.7-3.7,4.7-4.8c2-1.1,4.2-1.7,6.7-1.7c2.5,0,4.7,0.6,6.7,1.7c2,1.1,3.6,2.7,4.7,4.8c1.2,2.1,1.7,4.7,1.7,7.7
				c0,3-0.6,5.6-1.7,7.7c-1.2,2.1-2.7,3.7-4.7,4.8C885.1,166.8,882.8,167.3,880.4,167.3z M877.8,137.1h-5.5V137l5.8-5.7h4.7l5.8,5.7
				v0.1H883l-2.6-3.1L877.8,137.1z M880.4,161.6c1.3,0,2.5-0.3,3.5-1c1-0.6,1.7-1.6,2.2-2.8c0.5-1.3,0.8-2.8,0.8-4.6
				c0-1.8-0.3-3.4-0.8-4.6s-1.3-2.2-2.2-2.9c-1-0.6-2.1-1-3.5-1c-1.3,0-2.5,0.3-3.5,1c-1,0.6-1.7,1.6-2.2,2.9
				c-0.5,1.3-0.8,2.8-0.8,4.6c0,1.8,0.3,3.4,0.8,4.6c0.5,1.3,1.3,2.2,2.2,2.8C877.9,161.2,879,161.6,880.4,161.6z M885.3,129.8
				l-3.3-4.9h4.8l2.2,4.9H885.3z"/>
			<path class="st3" d="M897.2,167v-27.6h7.2l7.7,12.5c0.5,0.8,1,1.7,1.5,2.6c0.5,0.9,0.9,1.9,1.4,2.9c0.5,1.1,0.9,2.3,1.4,3.7h-0.6
				c-0.1-1-0.2-2.1-0.2-3.4c-0.1-1.2-0.2-2.4-0.2-3.6c-0.1-1.2-0.1-2.2-0.1-3v-11.8h6.7V167h-7.2l-7.1-11.4c-0.6-1.1-1.2-2-1.7-3
				c-0.5-0.9-1-2-1.5-3.1c-0.5-1.1-1.1-2.4-1.8-3.9h0.8c0.1,1.3,0.2,2.6,0.3,3.9c0.1,1.3,0.1,2.4,0.2,3.5c0,1,0.1,1.9,0.1,2.6V167
				H897.2z"/>
			<path class="st3" d="M938.9,167.3c-2.6,0-4.9-0.6-6.9-1.7c-2-1.1-3.5-2.8-4.7-4.9c-1.1-2.1-1.7-4.6-1.7-7.5c0-3,0.6-5.6,1.8-7.7
				c1.2-2.1,2.8-3.7,4.8-4.9c2-1.1,4.2-1.7,6.7-1.7c1.6,0,3.1,0.2,4.4,0.7c1.4,0.5,2.6,1.1,3.7,1.9c1.1,0.8,1.9,1.8,2.6,3
				c0.7,1.1,1.1,2.4,1.3,3.8h-6.6c-0.2-0.6-0.4-1.1-0.7-1.5c-0.3-0.5-0.7-0.8-1.1-1.2c-0.4-0.3-0.9-0.6-1.5-0.7
				c-0.6-0.2-1.2-0.2-1.9-0.2c-1.3,0-2.5,0.3-3.5,1c-1,0.7-1.8,1.6-2.3,2.9c-0.5,1.3-0.8,2.8-0.8,4.6c0,1.8,0.3,3.3,0.8,4.6
				c0.5,1.3,1.3,2.2,2.3,2.9c1,0.7,2.2,1,3.6,1c1.2,0,2.3-0.2,3.2-0.6c0.9-0.4,1.5-1,2-1.8c0.4-0.8,0.7-1.7,0.7-2.7l1.2,0.2h-6.8
				v-4.8h11.9v3.6c0,2.5-0.5,4.6-1.6,6.3c-1,1.8-2.5,3.1-4.3,4.1C943.4,166.9,941.3,167.3,938.9,167.3z"/>
			<path class="st3" d="M534.1,217l-9.5-27.6h7.4l3.8,12.1c0.6,2,1.2,4.1,1.8,6.3c0.6,2.2,1.1,4.5,1.7,7h-1.4c0.6-2.4,1.1-4.8,1.6-7
				c0.5-2.2,1.1-4.3,1.7-6.3l3.7-12.1h7.3l-9.2,27.6H534.1z"/>
			<path class="st3" d="M566.8,217.3c-2.3,0-4.4-0.4-6.1-1.3c-1.8-0.8-3.1-2-4.1-3.5c-1-1.5-1.5-3.3-1.5-5.4v-17.8h6.5v17.3
				c0,1,0.2,1.8,0.6,2.6c0.4,0.8,1,1.3,1.8,1.8c0.8,0.4,1.6,0.6,2.7,0.6c1,0,1.9-0.2,2.7-0.6c0.8-0.4,1.4-1,1.8-1.8
				c0.4-0.8,0.6-1.6,0.6-2.6v-17.3h6.5v17.8c0,2.1-0.5,3.8-1.5,5.4c-1,1.5-2.3,2.7-4.1,3.5C571.2,216.9,569.1,217.3,566.8,217.3z
				 M572,193.3v-4h3.5c0.3,0,0.5-0.2,0.5-0.5v-3.3h5.7v3.7c0,1.4-0.4,2.5-1.2,3.1c-0.8,0.7-1.9,1-3.2,1H572z"/>
			<path class="st3" d="M595.3,217.3c-2.5,0-4.7-0.5-6.7-1.7c-2-1.1-3.6-2.7-4.7-4.8c-1.2-2.1-1.7-4.7-1.7-7.7c0-3,0.6-5.6,1.7-7.7
				c1.2-2.1,2.7-3.7,4.7-4.8c2-1.1,4.2-1.7,6.7-1.7c2.5,0,4.7,0.6,6.7,1.7c2,1.1,3.6,2.7,4.7,4.8c1.2,2.1,1.7,4.7,1.7,7.7
				c0,3-0.6,5.6-1.7,7.7c-1.2,2.1-2.7,3.7-4.7,4.8C600,216.8,597.8,217.3,595.3,217.3z M595.3,211.6c1.3,0,2.5-0.3,3.5-1
				c1-0.6,1.7-1.6,2.2-2.8c0.5-1.3,0.8-2.8,0.8-4.6c0-1.8-0.3-3.4-0.8-4.6s-1.3-2.2-2.2-2.9c-1-0.6-2.1-1-3.5-1
				c-1.3,0-2.5,0.3-3.5,1c-1,0.6-1.7,1.6-2.2,2.9c-0.5,1.3-0.8,2.8-0.8,4.6c0,1.8,0.3,3.4,0.8,4.6c0.5,1.3,1.3,2.2,2.2,2.8
				C592.8,211.2,594,211.6,595.3,211.6z M595.3,225.6c-0.9,0-1.7-0.3-2.4-0.9c-0.7-0.6-1-1.3-1-2.2c0-0.9,0.3-1.6,1-2.2
				c0.7-0.6,1.4-0.9,2.4-0.9c0.9,0,1.7,0.3,2.4,0.9c0.7,0.6,1,1.3,1,2.2c0,0.9-0.3,1.6-1,2.2C597,225.3,596.2,225.6,595.3,225.6z
				 M595.6,192.9v-3.9c0.6,0,1.1,0,1.5,0.1c0.4,0,0.9,0.1,1.3,0.1c0.5,0,1,0.1,1.7,0.1c0.6,0,1.4,0.1,2.4,0.1c0.4,0,0.5-0.2,0.5-0.5
				v-3.3h5.7v3.7c0,1.4-0.4,2.4-1.2,3c-0.8,0.6-1.9,0.9-3.2,0.9c-0.7,0-1.3,0-2,0c-0.6,0-1.3-0.1-2-0.1c-0.7,0-1.4-0.1-2.2-0.1
				C597.4,192.9,596.5,192.9,595.6,192.9z"/>
			<path class="st3" d="M611.8,194.7v-5.3H635v5.3h-8.4V217h-6.5v-22.3H611.8z"/>
			<path class="st3" d="M646.7,217v-27.6h6.5v6.8l-0.1,7.5l0.1,3.2V217H646.7z M651.6,211.4v-5.7c0.5-1.1,1.1-2.1,1.6-3
				c0.5-0.9,1.1-1.8,1.8-2.7c0.6-0.9,1.4-1.9,2.3-3.1l6.2-7.6h7.9l-11.6,13.9l-0.6-0.2L651.6,211.4z M664,217l-7.5-11.8l4.1-4.8
				l11,16.7H664z"/>
			<path class="st3" d="M674.8,217v-27.6h6.5v10.9h11v-10.9h6.5V217h-6.5v-11.4h-11V217H674.8z"/>
			<path class="st3" d="M715.8,217.3c-2.5,0-4.7-0.5-6.7-1.7c-2-1.1-3.6-2.7-4.7-4.8c-1.2-2.1-1.7-4.7-1.7-7.7c0-3,0.6-5.6,1.7-7.7
				c1.2-2.1,2.7-3.7,4.7-4.8c2-1.1,4.2-1.7,6.7-1.7c2.5,0,4.7,0.6,6.7,1.7c2,1.1,3.6,2.7,4.7,4.8c1.2,2.1,1.7,4.7,1.7,7.7
				c0,3-0.6,5.6-1.7,7.7c-1.2,2.1-2.7,3.7-4.7,4.8C720.5,216.8,718.2,217.3,715.8,217.3z M715.8,211.6c1.3,0,2.5-0.3,3.5-1
				c1-0.6,1.7-1.6,2.2-2.8c0.5-1.3,0.8-2.8,0.8-4.6c0-1.8-0.3-3.4-0.8-4.6s-1.3-2.2-2.2-2.9c-1-0.6-2.1-1-3.5-1
				c-1.3,0-2.5,0.3-3.5,1c-1,0.6-1.7,1.6-2.2,2.9c-0.5,1.3-0.8,2.8-0.8,4.6c0,1.8,0.3,3.4,0.8,4.6c0.5,1.3,1.3,2.2,2.2,2.8
				C713.2,211.2,714.4,211.6,715.8,211.6z M713.5,186.7l2.6-5.9h5.8l-4,5.9H713.5z"/>
			<path class="st3" d="M749.4,217.3c-3,0-5.4-0.8-7.1-2.3c-1.7-1.5-2.6-3.7-2.6-6.5v-1.7h6.5v1.8c0,1.2,0.3,2.1,0.8,2.7
				s1.3,0.9,2.3,0.9c1,0,1.7-0.3,2.3-0.9c0.6-0.6,0.8-1.5,0.8-2.7v-19.3h6.5v19.1c0,2.8-0.8,5-2.5,6.6
				C754.8,216.6,752.4,217.3,749.4,217.3z"/>
			<path class="st3" d="M763.3,217v-27.6h11.3c2.1,0,3.9,0.4,5.4,1.2c1.5,0.8,2.7,1.9,3.5,3.4c0.8,1.4,1.2,3.1,1.2,5
				c0,1.9-0.4,3.6-1.2,5c-0.8,1.4-2,2.5-3.5,3.3c-1.5,0.8-3.4,1.2-5.5,1.2h-7v-5.2h5.8c1,0,1.9-0.2,2.6-0.5c0.7-0.4,1.2-0.9,1.6-1.5
				c0.3-0.6,0.5-1.4,0.5-2.2c0-0.9-0.2-1.6-0.5-2.3c-0.3-0.6-0.9-1.1-1.6-1.5c-0.7-0.3-1.6-0.5-2.6-0.5h-3.4V217H763.3z"/>
			<path class="st3" d="M794.6,189.3V217h-6.5v-27.6H794.6z M798.2,217h-7.3v-5.6h7.1c1.6,0,2.9-0.3,4-0.8c1.1-0.5,1.9-1.4,2.5-2.6
				c0.6-1.2,0.8-2.8,0.8-4.8c0-2-0.3-3.6-0.9-4.8c-0.6-1.2-1.4-2.1-2.5-2.6c-1.1-0.5-2.5-0.8-4.1-0.8h-7.1v-5.6h7.5
				c2.8,0,5.2,0.6,7.3,1.7c2,1.1,3.6,2.7,4.7,4.8c1.1,2.1,1.7,4.5,1.7,7.4c0,2.9-0.5,5.3-1.6,7.4c-1.1,2.1-2.7,3.7-4.7,4.8
				C803.5,216.4,801.1,217,798.2,217z"/>
		</g>
	</g>
</g>
<g>
	
		<image style="overflow:visible;opacity:0.25;" width="132" height="132" xlink:href="1472E46F.png"  transform="matrix(1 0 0 1 983 113)">
	</image>
	<g>
		<g>
			<circle class="st4" cx="1049.4" cy="175.3" r="50"/>
			<circle class="st5" cx="1049.4" cy="175.3" r="50"/>
		</g>
	</g>
</g>
<g>
	<g>
		<path class="st3" d="M1036,189.4c-2.5,0-4.7-0.5-6.6-1.6s-3.4-2.6-4.4-4.6s-1.6-4.4-1.6-7.1c0-2.9,0.6-5.3,1.7-7.3
			s2.6-3.5,4.5-4.6s4-1.6,6.3-1.6c1.5,0,2.9,0.2,4.2,0.7s2.4,1,3.5,1.8s1.8,1.7,2.5,2.8s1,2.3,1.2,3.6h-6.3c-0.2-0.5-0.4-1-0.7-1.5
			s-0.6-0.8-1.1-1.1s-0.9-0.5-1.4-0.7s-1.1-0.2-1.8-0.2c-1.3,0-2.4,0.3-3.3,0.9s-1.7,1.5-2.2,2.7s-0.8,2.6-0.8,4.3
			c0,1.7,0.2,3.1,0.7,4.3s1.2,2.1,2.2,2.7s2.1,0.9,3.4,0.9c1.2,0,2.2-0.2,3-0.6s1.4-0.9,1.9-1.7s0.6-1.6,0.6-2.5l1.2,0.2h-6.4v-4.6
			h11.2v3.4c0,2.3-0.5,4.3-1.5,6s-2.3,3-4.1,3.8S1038.2,189.4,1036,189.4z"/>
		<path class="st3" d="M1063,189.4c-2.4,0-4.5-0.5-6.4-1.6s-3.4-2.6-4.5-4.6s-1.7-4.4-1.7-7.3c0-2.9,0.6-5.3,1.7-7.3
			s2.6-3.5,4.5-4.6s4-1.6,6.4-1.6c2.3,0,4.5,0.5,6.3,1.6s3.4,2.6,4.5,4.6s1.6,4.4,1.6,7.3c0,2.9-0.5,5.3-1.6,7.3s-2.6,3.5-4.5,4.6
			S1065.3,189.4,1063,189.4z M1063,184c1.3,0,2.4-0.3,3.3-0.9s1.6-1.5,2.1-2.7s0.7-2.6,0.7-4.4c0-1.7-0.2-3.2-0.7-4.4
			s-1.2-2.1-2.1-2.7s-2-0.9-3.3-0.9c-1.3,0-2.4,0.3-3.3,0.9s-1.6,1.5-2.1,2.7s-0.7,2.7-0.7,4.4c0,1.7,0.2,3.2,0.7,4.4
			s1.2,2.1,2.1,2.7S1061.7,184,1063,184z"/>
	</g>
</g>
</svg>
